<svg xmlns="http://www.w3.org/2000/svg" viewBox="0 0 149.35 31.77"><defs><style>.cls-1{font-size:24.83px;fill:#4f4f4f;font-family:Raleway-Bold, Raleway;font-weight:700;letter-spacing:0.03em;}.cls-2{fill:#1ceae4;}.cls-3{fill:#ffe910;}</style></defs><title>Ativo 4</title><g id="Camada_2" data-name="Camada 2"><g id="Layer_1" data-name="Layer 1"><text class="cls-1" transform="translate(31.06 24.14)">hipnoedu</text><path class="cls-2" d="M21.82,6.22A2.23,2.23,0,0,0,19.6,4L13.8,4a2.19,2.19,0,0,0-1.85,1,13.28,13.28,0,0,1,6,11c0,.23,0,.45,0,.68A8.79,8.79,0,0,1,5.18,16c0-.05,0-.09,0-.14A17.44,17.44,0,0,1,13,1.32,2.9,2.9,0,0,0,10.51,0L2.89,0A2.92,2.92,0,0,0,0,3L.11,28.87A2.91,2.91,0,0,0,3,31.77l7.61,0a2.92,2.92,0,0,0,2.43-1.34,17.58,17.58,0,0,1-6.84-8.61l10.49-.05A13.33,13.33,0,0,1,12,27.2a2.22,2.22,0,0,0,1.86,1l5.8,0A2.2,2.2,0,0,0,21.9,26Z"/><circle class="cls-3" cx="11.5" cy="12.87" r="3.71"/></g></g></svg>