<svg xmlns="http://www.w3.org/2000/svg" viewBox="0 0 21.4 21.4"><defs><style>.cls-1{fill:#1ceae4;}</style></defs><title>Ativo 2</title><g id="Camada_2" data-name="Camada 2"><g id="Layer_1" data-name="Layer 1"><path class="cls-1" d="M20.22,1.18A3.84,3.84,0,0,0,17.39,0H4A3.84,3.84,0,0,0,1.18,1.18,3.84,3.84,0,0,0,0,4V17.39a3.84,3.84,0,0,0,1.18,2.83A3.88,3.88,0,0,0,4,21.4H17.39a4,4,0,0,0,4-4V4a3.88,3.88,0,0,0-1.18-2.83ZM6.52,17.91H3.3V8.25H6.52ZM6.23,6.46a1.86,1.86,0,0,1-1.33.48h0A1.77,1.77,0,0,1,3.6,6.46a1.59,1.59,0,0,1-.49-1.19,1.55,1.55,0,0,1,.51-1.2,1.81,1.81,0,0,1,1.31-.48,1.78,1.78,0,0,1,1.3.48,1.65,1.65,0,0,1,.5,1.2,1.6,1.6,0,0,1-.5,1.19ZM18.1,17.91H14.88V12.75q0-2.19-1.62-2.19a1.56,1.56,0,0,0-1,.34,2.14,2.14,0,0,0-.63.83,2.51,2.51,0,0,0-.09.78v5.4H8.29q0-8.75,0-9.66h3.22V9.61A3.21,3.21,0,0,1,14.39,8a3.51,3.51,0,0,1,2.69,1.1,4.64,4.64,0,0,1,1,3.25Z"/></g></g></svg>