<svg xmlns="http://www.w3.org/2000/svg" viewBox="0 0 21.63 21.63"><defs><style>.cls-1{fill:#1ceae4;}</style></defs><title>Ativo 1</title><g id="Camada_2" data-name="Camada 2"><g id="Layer_1" data-name="Layer 1"><path class="cls-1" d="M18.71,0H2.91A2.91,2.91,0,0,0,0,2.91v15.8a2.91,2.91,0,0,0,2.91,2.92h7.8V13.9h-2a.47.47,0,0,1-.47-.47v-2.5a.47.47,0,0,1,.47-.47h2V8.05A3.93,3.93,0,0,1,14.9,3.74h2a.47.47,0,0,1,.47.47v2.1a.48.48,0,0,1-.47.48H15.69c-1.35,0-1.61.64-1.61,1.59v2.08h3a.47.47,0,0,1,.47.53l-.29,2.49a.48.48,0,0,1-.47.42H14.09v7.73h4.63a2.92,2.92,0,0,0,2.92-2.92V2.91A2.91,2.91,0,0,0,18.71,0Z"/></g></g></svg>