<svg xmlns="http://www.w3.org/2000/svg" viewBox="0 0 18.79 18.79"><defs><style>.cls-1{fill:#626263;fill-rule:evenodd;}</style></defs><title>Ativo 3</title><g id="Camada_2" data-name="Camada 2"><g id="Layer_1" data-name="Layer 1"><path class="cls-1" d="M18.79,9.15A9.18,9.18,0,0,1,9.57,18.3a9.29,9.29,0,0,1-4.46-1.13L0,18.79l1.66-4.91A9.07,9.07,0,0,1,.34,9.15a9.23,9.23,0,0,1,18.45,0ZM9.57,1.46A7.73,7.73,0,0,0,1.81,9.15a7.57,7.57,0,0,0,1.48,4.51l-1,2.86,3-.95A7.71,7.71,0,1,0,9.57,1.46Zm4.65,9.8c-.05-.09-.2-.15-.43-.26s-1.34-.66-1.55-.73-.35-.11-.5.11-.59.73-.72.88-.26.17-.49.06A6.22,6.22,0,0,1,8.71,10.2,7.11,7.11,0,0,1,7.45,8.65c-.13-.22,0-.35.1-.46s.23-.26.34-.39a1.48,1.48,0,0,0,.23-.38A.41.41,0,0,0,8.1,7C8,6.92,7.59,5.82,7.4,5.37S7,5,6.89,5L6.46,5a.83.83,0,0,0-.6.28,2.52,2.52,0,0,0-.79,1.88A4.39,4.39,0,0,0,6,9.45a9.21,9.21,0,0,0,3.86,3.38c2.3.9,2.3.6,2.71.56a2.26,2.26,0,0,0,1.53-1.06,1.82,1.82,0,0,0,.13-1.07Z"/></g></g></svg>